<mxfile host="Electron" modified="2023-12-12T07:26:12.061Z" agent="Mozilla/5.0 (Macintosh; Intel Mac OS X 10_15_7) AppleWebKit/537.36 (KHTML, like Gecko) draw.io/21.4.0 Chrome/112.0.5615.204 Electron/24.5.1 Safari/537.36" etag="RwwZ86xsN2fWbO9i0U9C" version="21.4.0" type="device" pages="4">
  <diagram name="Page-1" id="FkgcF32SfvKp-oxod49X">
    <mxGraphModel dx="2069" dy="1997" grid="1" gridSize="10" guides="1" tooltips="1" connect="1" arrows="1" fold="1" page="1" pageScale="1" pageWidth="827" pageHeight="1169" math="0" shadow="0">
      <root>
        <mxCell id="0" />
        <mxCell id="1" parent="0" />
        <mxCell id="yiB13xVR83wiVHmhBamZ-1" value="this is line 1" style="rounded=0;whiteSpace=wrap;html=1;fillColor=#fff2cc;strokeColor=#d6b656;fontSize=17;" vertex="1" parent="1">
          <mxGeometry x="470" y="400" width="260" height="130" as="geometry" />
        </mxCell>
        <mxCell id="yiB13xVR83wiVHmhBamZ-11" style="edgeStyle=orthogonalEdgeStyle;rounded=0;orthogonalLoop=1;jettySize=auto;html=1;" edge="1" parent="1" source="yiB13xVR83wiVHmhBamZ-2" target="yiB13xVR83wiVHmhBamZ-1">
          <mxGeometry relative="1" as="geometry" />
        </mxCell>
        <mxCell id="yiB13xVR83wiVHmhBamZ-2" value="" style="rounded=0;whiteSpace=wrap;html=1;fillColor=#d5e8d4;strokeColor=#82b366;fontSize=17;" vertex="1" parent="1">
          <mxGeometry x="150" y="400" width="260" height="130" as="geometry" />
        </mxCell>
        <mxCell id="yiB13xVR83wiVHmhBamZ-9" style="edgeStyle=orthogonalEdgeStyle;rounded=0;orthogonalLoop=1;jettySize=auto;html=1;entryX=0;entryY=0.5;entryDx=0;entryDy=0;" edge="1" parent="1" source="yiB13xVR83wiVHmhBamZ-3" target="yiB13xVR83wiVHmhBamZ-2">
          <mxGeometry relative="1" as="geometry" />
        </mxCell>
        <mxCell id="yiB13xVR83wiVHmhBamZ-3" value="" style="rounded=0;whiteSpace=wrap;html=1;fillColor=#dae8fc;strokeColor=#6c8ebf;fontSize=17;" vertex="1" parent="1">
          <mxGeometry x="-180" y="400" width="270" height="130" as="geometry" />
        </mxCell>
        <mxCell id="yiB13xVR83wiVHmhBamZ-4" value="blob object&lt;br&gt;(2e45a8)" style="text;html=1;strokeColor=none;fillColor=none;align=center;verticalAlign=middle;whiteSpace=wrap;rounded=0;fontStyle=1;fontSize=16;" vertex="1" parent="1">
          <mxGeometry x="470" y="540" width="260" height="30" as="geometry" />
        </mxCell>
        <mxCell id="yiB13xVR83wiVHmhBamZ-5" value="tree object&lt;br&gt;(f2de908)" style="text;html=1;strokeColor=none;fillColor=none;align=center;verticalAlign=middle;whiteSpace=wrap;rounded=0;fontStyle=1;fontSize=16;" vertex="1" parent="1">
          <mxGeometry x="150" y="540" width="260" height="30" as="geometry" />
        </mxCell>
        <mxCell id="yiB13xVR83wiVHmhBamZ-6" value="commit object&lt;br&gt;(6082670)" style="text;html=1;strokeColor=none;fillColor=none;align=center;verticalAlign=middle;whiteSpace=wrap;rounded=0;fontStyle=1;fontSize=16;" vertex="1" parent="1">
          <mxGeometry x="-180" y="540" width="270" height="30" as="geometry" />
        </mxCell>
        <mxCell id="yiB13xVR83wiVHmhBamZ-7" value="tree&amp;nbsp;f2de908&lt;br&gt;author name &amp;lt;email&amp;gt;&lt;br&gt;committer name &amp;lt;email&amp;gt;&lt;br&gt;&lt;br&gt;commit message: first commit" style="text;html=1;strokeColor=none;fillColor=none;align=left;verticalAlign=top;whiteSpace=wrap;rounded=0;fontStyle=1;fontSize=16;" vertex="1" parent="1">
          <mxGeometry x="-170" y="410" width="250" height="115" as="geometry" />
        </mxCell>
        <mxCell id="yiB13xVR83wiVHmhBamZ-8" value="100644&amp;nbsp; blob&amp;nbsp; 2e45a8&amp;nbsp; myfile.txt" style="text;html=1;strokeColor=none;fillColor=none;align=left;verticalAlign=top;whiteSpace=wrap;rounded=0;fontStyle=1;fontSize=16;" vertex="1" parent="1">
          <mxGeometry x="155" y="407.5" width="250" height="115" as="geometry" />
        </mxCell>
        <mxCell id="yiB13xVR83wiVHmhBamZ-12" value="this is line 1&#xa;this is line 2" style="rounded=0;whiteSpace=wrap;html=1;fillColor=#fff2cc;strokeColor=#d6b656;fontSize=17;" vertex="1" parent="1">
          <mxGeometry x="530" y="30" width="260" height="140" as="geometry" />
        </mxCell>
        <mxCell id="yiB13xVR83wiVHmhBamZ-13" value="blob object&lt;br&gt;(23575b)" style="text;html=1;strokeColor=none;fillColor=none;align=center;verticalAlign=middle;whiteSpace=wrap;rounded=0;fontStyle=1;fontSize=16;" vertex="1" parent="1">
          <mxGeometry x="530" y="180" width="260" height="30" as="geometry" />
        </mxCell>
        <mxCell id="yiB13xVR83wiVHmhBamZ-23" style="edgeStyle=orthogonalEdgeStyle;rounded=0;orthogonalLoop=1;jettySize=auto;html=1;entryX=0;entryY=0.5;entryDx=0;entryDy=0;" edge="1" parent="1" source="yiB13xVR83wiVHmhBamZ-14" target="yiB13xVR83wiVHmhBamZ-12">
          <mxGeometry relative="1" as="geometry" />
        </mxCell>
        <mxCell id="yiB13xVR83wiVHmhBamZ-14" value="" style="rounded=0;whiteSpace=wrap;html=1;fillColor=#d5e8d4;strokeColor=#82b366;fontSize=17;" vertex="1" parent="1">
          <mxGeometry x="150" y="140" width="260" height="140" as="geometry" />
        </mxCell>
        <mxCell id="yiB13xVR83wiVHmhBamZ-15" style="edgeStyle=orthogonalEdgeStyle;rounded=0;orthogonalLoop=1;jettySize=auto;html=1;entryX=0;entryY=0.5;entryDx=0;entryDy=0;" edge="1" parent="1" source="yiB13xVR83wiVHmhBamZ-16" target="yiB13xVR83wiVHmhBamZ-14">
          <mxGeometry relative="1" as="geometry" />
        </mxCell>
        <mxCell id="yiB13xVR83wiVHmhBamZ-24" style="edgeStyle=orthogonalEdgeStyle;rounded=0;orthogonalLoop=1;jettySize=auto;html=1;entryX=-0.001;entryY=0.551;entryDx=0;entryDy=0;entryPerimeter=0;" edge="1" parent="1" source="yiB13xVR83wiVHmhBamZ-16" target="yiB13xVR83wiVHmhBamZ-3">
          <mxGeometry relative="1" as="geometry">
            <Array as="points">
              <mxPoint x="-200" y="210" />
              <mxPoint x="-200" y="472" />
            </Array>
          </mxGeometry>
        </mxCell>
        <mxCell id="yiB13xVR83wiVHmhBamZ-16" value="" style="rounded=0;whiteSpace=wrap;html=1;fillColor=#dae8fc;strokeColor=#6c8ebf;fontSize=17;" vertex="1" parent="1">
          <mxGeometry x="-180" y="140" width="270" height="140" as="geometry" />
        </mxCell>
        <mxCell id="yiB13xVR83wiVHmhBamZ-17" value="tree object&lt;br&gt;(c44eea)" style="text;html=1;strokeColor=none;fillColor=none;align=center;verticalAlign=middle;whiteSpace=wrap;rounded=0;fontStyle=1;fontSize=16;" vertex="1" parent="1">
          <mxGeometry x="150" y="290" width="260" height="30" as="geometry" />
        </mxCell>
        <mxCell id="yiB13xVR83wiVHmhBamZ-18" value="commit object&lt;br&gt;(1190d89)" style="text;html=1;strokeColor=none;fillColor=none;align=center;verticalAlign=middle;whiteSpace=wrap;rounded=0;fontStyle=1;fontSize=16;" vertex="1" parent="1">
          <mxGeometry x="-180" y="290" width="270" height="30" as="geometry" />
        </mxCell>
        <mxCell id="yiB13xVR83wiVHmhBamZ-19" value="tree&amp;nbsp;c44eea&lt;br&gt;parent&amp;nbsp;6082670&lt;br&gt;author name &amp;lt;email&amp;gt;&lt;br&gt;committer name &amp;lt;email&amp;gt;&lt;br&gt;&lt;br&gt;commit message: first commit" style="text;html=1;strokeColor=none;fillColor=none;align=left;verticalAlign=top;whiteSpace=wrap;rounded=0;fontStyle=1;fontSize=16;" vertex="1" parent="1">
          <mxGeometry x="-170" y="142.5" width="250" height="130" as="geometry" />
        </mxCell>
        <mxCell id="yiB13xVR83wiVHmhBamZ-20" value="100644&amp;nbsp; blob&amp;nbsp; 23575b&amp;nbsp; myfile.txt" style="text;html=1;strokeColor=none;fillColor=none;align=left;verticalAlign=top;whiteSpace=wrap;rounded=0;fontStyle=1;fontSize=16;" vertex="1" parent="1">
          <mxGeometry x="155" y="150" width="250" height="115" as="geometry" />
        </mxCell>
        <mxCell id="yiB13xVR83wiVHmhBamZ-36" style="edgeStyle=orthogonalEdgeStyle;rounded=0;orthogonalLoop=1;jettySize=auto;html=1;entryX=-0.002;entryY=0.342;entryDx=0;entryDy=0;entryPerimeter=0;" edge="1" parent="1" source="yiB13xVR83wiVHmhBamZ-28" target="yiB13xVR83wiVHmhBamZ-12">
          <mxGeometry relative="1" as="geometry" />
        </mxCell>
        <mxCell id="yiB13xVR83wiVHmhBamZ-28" value="" style="rounded=0;whiteSpace=wrap;html=1;fillColor=#d5e8d4;strokeColor=#82b366;fontSize=17;" vertex="1" parent="1">
          <mxGeometry x="155" y="-120" width="265" height="140" as="geometry" />
        </mxCell>
        <mxCell id="yiB13xVR83wiVHmhBamZ-29" style="edgeStyle=orthogonalEdgeStyle;rounded=0;orthogonalLoop=1;jettySize=auto;html=1;entryX=0;entryY=0.5;entryDx=0;entryDy=0;" edge="1" parent="1" source="yiB13xVR83wiVHmhBamZ-30" target="yiB13xVR83wiVHmhBamZ-28">
          <mxGeometry relative="1" as="geometry" />
        </mxCell>
        <mxCell id="yiB13xVR83wiVHmhBamZ-35" style="edgeStyle=orthogonalEdgeStyle;rounded=0;orthogonalLoop=1;jettySize=auto;html=1;entryX=0.002;entryY=0.145;entryDx=0;entryDy=0;entryPerimeter=0;" edge="1" parent="1" source="yiB13xVR83wiVHmhBamZ-30" target="yiB13xVR83wiVHmhBamZ-16">
          <mxGeometry relative="1" as="geometry">
            <Array as="points">
              <mxPoint x="-200" y="-50" />
              <mxPoint x="-200" y="160" />
            </Array>
          </mxGeometry>
        </mxCell>
        <mxCell id="yiB13xVR83wiVHmhBamZ-30" value="" style="rounded=0;whiteSpace=wrap;html=1;fillColor=#dae8fc;strokeColor=#6c8ebf;fontSize=17;" vertex="1" parent="1">
          <mxGeometry x="-175" y="-120" width="270" height="140" as="geometry" />
        </mxCell>
        <mxCell id="yiB13xVR83wiVHmhBamZ-31" value="tree object&lt;br&gt;(9ee443b9)" style="text;html=1;strokeColor=none;fillColor=none;align=center;verticalAlign=middle;whiteSpace=wrap;rounded=0;fontStyle=1;fontSize=16;" vertex="1" parent="1">
          <mxGeometry x="155" y="30" width="260" height="30" as="geometry" />
        </mxCell>
        <mxCell id="yiB13xVR83wiVHmhBamZ-32" value="commit object&lt;br&gt;(0c08aa5)" style="text;html=1;strokeColor=none;fillColor=none;align=center;verticalAlign=middle;whiteSpace=wrap;rounded=0;fontStyle=1;fontSize=16;" vertex="1" parent="1">
          <mxGeometry x="-175" y="30" width="270" height="30" as="geometry" />
        </mxCell>
        <mxCell id="yiB13xVR83wiVHmhBamZ-33" value="tree&amp;nbsp;9ee443b9&lt;br&gt;parent&amp;nbsp;1190d89&lt;br&gt;author name &amp;lt;email&amp;gt;&lt;br&gt;committer name &amp;lt;email&amp;gt;&lt;br&gt;&lt;br&gt;commit message: first commit" style="text;html=1;strokeColor=none;fillColor=none;align=left;verticalAlign=top;whiteSpace=wrap;rounded=0;fontStyle=1;fontSize=16;" vertex="1" parent="1">
          <mxGeometry x="-165" y="-117.5" width="250" height="130" as="geometry" />
        </mxCell>
        <mxCell id="yiB13xVR83wiVHmhBamZ-34" value="100644&amp;nbsp; blob&amp;nbsp; 23575b&amp;nbsp; myfile.txt&lt;br&gt;100644&amp;nbsp; blob&amp;nbsp; 23575b&amp;nbsp; myfile2.txt" style="text;html=1;strokeColor=none;fillColor=none;align=left;verticalAlign=top;whiteSpace=wrap;rounded=0;fontStyle=1;fontSize=16;" vertex="1" parent="1">
          <mxGeometry x="160" y="-110" width="250" height="115" as="geometry" />
        </mxCell>
        <mxCell id="yiB13xVR83wiVHmhBamZ-52" style="edgeStyle=orthogonalEdgeStyle;rounded=0;orthogonalLoop=1;jettySize=auto;html=1;" edge="1" parent="1" source="yiB13xVR83wiVHmhBamZ-37" target="yiB13xVR83wiVHmhBamZ-48">
          <mxGeometry relative="1" as="geometry" />
        </mxCell>
        <mxCell id="yiB13xVR83wiVHmhBamZ-37" value="" style="rounded=0;whiteSpace=wrap;html=1;fillColor=#d5e8d4;strokeColor=#82b366;fontSize=17;" vertex="1" parent="1">
          <mxGeometry x="155" y="-330" width="265" height="140" as="geometry" />
        </mxCell>
        <mxCell id="yiB13xVR83wiVHmhBamZ-38" style="edgeStyle=orthogonalEdgeStyle;rounded=0;orthogonalLoop=1;jettySize=auto;html=1;entryX=0;entryY=0.5;entryDx=0;entryDy=0;" edge="1" parent="1" source="yiB13xVR83wiVHmhBamZ-39" target="yiB13xVR83wiVHmhBamZ-37">
          <mxGeometry relative="1" as="geometry" />
        </mxCell>
        <mxCell id="yiB13xVR83wiVHmhBamZ-44" style="edgeStyle=orthogonalEdgeStyle;rounded=0;orthogonalLoop=1;jettySize=auto;html=1;entryX=0.001;entryY=0.131;entryDx=0;entryDy=0;entryPerimeter=0;" edge="1" parent="1" source="yiB13xVR83wiVHmhBamZ-39" target="yiB13xVR83wiVHmhBamZ-30">
          <mxGeometry relative="1" as="geometry">
            <Array as="points">
              <mxPoint x="-195" y="-260" />
              <mxPoint x="-195" y="-102" />
            </Array>
          </mxGeometry>
        </mxCell>
        <mxCell id="yiB13xVR83wiVHmhBamZ-39" value="" style="rounded=0;whiteSpace=wrap;html=1;fillColor=#dae8fc;strokeColor=#6c8ebf;fontSize=17;" vertex="1" parent="1">
          <mxGeometry x="-175" y="-330" width="270" height="140" as="geometry" />
        </mxCell>
        <mxCell id="yiB13xVR83wiVHmhBamZ-40" value="tree object&lt;br&gt;(e0b44de1)" style="text;html=1;strokeColor=none;fillColor=none;align=center;verticalAlign=middle;whiteSpace=wrap;rounded=0;fontStyle=1;fontSize=16;" vertex="1" parent="1">
          <mxGeometry x="155" y="-180" width="260" height="30" as="geometry" />
        </mxCell>
        <mxCell id="yiB13xVR83wiVHmhBamZ-41" value="commit object&lt;br&gt;(b294cac)" style="text;html=1;strokeColor=none;fillColor=none;align=center;verticalAlign=middle;whiteSpace=wrap;rounded=0;fontStyle=1;fontSize=16;" vertex="1" parent="1">
          <mxGeometry x="-175" y="-180" width="270" height="30" as="geometry" />
        </mxCell>
        <mxCell id="yiB13xVR83wiVHmhBamZ-42" value="tree&amp;nbsp;9ee443b9&lt;br&gt;parent&amp;nbsp;0c08aa5&lt;br&gt;author name &amp;lt;email&amp;gt;&lt;br&gt;committer name &amp;lt;email&amp;gt;&lt;br&gt;&lt;br&gt;commit message: first commit" style="text;html=1;strokeColor=none;fillColor=none;align=left;verticalAlign=top;whiteSpace=wrap;rounded=0;fontStyle=1;fontSize=16;" vertex="1" parent="1">
          <mxGeometry x="-165" y="-327.5" width="250" height="130" as="geometry" />
        </mxCell>
        <mxCell id="yiB13xVR83wiVHmhBamZ-51" style="edgeStyle=orthogonalEdgeStyle;rounded=0;orthogonalLoop=1;jettySize=auto;html=1;" edge="1" parent="1" source="yiB13xVR83wiVHmhBamZ-43" target="yiB13xVR83wiVHmhBamZ-46">
          <mxGeometry relative="1" as="geometry" />
        </mxCell>
        <mxCell id="yiB13xVR83wiVHmhBamZ-43" value="100644&amp;nbsp; blob&amp;nbsp; 23575b&amp;nbsp; myfile.txt&lt;br&gt;100644&amp;nbsp; blob&amp;nbsp; 5c79cfa&amp;nbsp; myfile2.txt" style="text;html=1;strokeColor=none;fillColor=none;align=left;verticalAlign=top;whiteSpace=wrap;rounded=0;fontStyle=1;fontSize=16;" vertex="1" parent="1">
          <mxGeometry x="160" y="-320" width="260" height="115" as="geometry" />
        </mxCell>
        <mxCell id="yiB13xVR83wiVHmhBamZ-46" value="&lt;div&gt;this is line 1&lt;/div&gt;&lt;div&gt;this is line 2&lt;/div&gt;&lt;div&gt;this is line 3&lt;/div&gt;" style="rounded=0;whiteSpace=wrap;html=1;fillColor=#fff2cc;strokeColor=#d6b656;fontSize=17;" vertex="1" parent="1">
          <mxGeometry x="580" y="-370" width="260" height="80" as="geometry" />
        </mxCell>
        <mxCell id="yiB13xVR83wiVHmhBamZ-47" value="blob object&lt;br&gt;(9ed92c)" style="text;html=1;strokeColor=none;fillColor=none;align=center;verticalAlign=middle;whiteSpace=wrap;rounded=0;fontStyle=1;fontSize=16;" vertex="1" parent="1">
          <mxGeometry x="580" y="-280" width="260" height="30" as="geometry" />
        </mxCell>
        <mxCell id="yiB13xVR83wiVHmhBamZ-48" value="this is line 1&#xa;this is line 2&#xa;new lined added" style="rounded=0;whiteSpace=wrap;html=1;fillColor=#fff2cc;strokeColor=#d6b656;fontSize=17;" vertex="1" parent="1">
          <mxGeometry x="580" y="-220" width="260" height="80" as="geometry" />
        </mxCell>
        <mxCell id="yiB13xVR83wiVHmhBamZ-49" value="blob object&lt;br&gt;(5c79cfa)" style="text;html=1;strokeColor=none;fillColor=none;align=center;verticalAlign=middle;whiteSpace=wrap;rounded=0;fontStyle=1;fontSize=16;" vertex="1" parent="1">
          <mxGeometry x="580" y="-130" width="260" height="30" as="geometry" />
        </mxCell>
      </root>
    </mxGraphModel>
  </diagram>
  <diagram id="tCRu-VoLLOp6ZvMXobKj" name="Page-2">
    <mxGraphModel dx="710" dy="473" grid="1" gridSize="10" guides="1" tooltips="1" connect="1" arrows="1" fold="1" page="1" pageScale="1" pageWidth="827" pageHeight="1169" math="0" shadow="0">
      <root>
        <mxCell id="0" />
        <mxCell id="1" parent="0" />
        <mxCell id="ZX1a2Qx2xlT9BXYJ-73v-1" value="repository" style="rounded=0;whiteSpace=wrap;html=1;" vertex="1" parent="1">
          <mxGeometry x="354" y="340" width="120" height="60" as="geometry" />
        </mxCell>
        <mxCell id="ZX1a2Qx2xlT9BXYJ-73v-4" style="edgeStyle=orthogonalEdgeStyle;rounded=0;orthogonalLoop=1;jettySize=auto;html=1;entryX=0;entryY=0.5;entryDx=0;entryDy=0;" edge="1" parent="1" source="ZX1a2Qx2xlT9BXYJ-73v-2" target="ZX1a2Qx2xlT9BXYJ-73v-1">
          <mxGeometry relative="1" as="geometry" />
        </mxCell>
        <mxCell id="ZX1a2Qx2xlT9BXYJ-73v-10" style="edgeStyle=orthogonalEdgeStyle;rounded=0;orthogonalLoop=1;jettySize=auto;html=1;" edge="1" parent="1" source="ZX1a2Qx2xlT9BXYJ-73v-2" target="ZX1a2Qx2xlT9BXYJ-73v-9">
          <mxGeometry relative="1" as="geometry" />
        </mxCell>
        <mxCell id="ZX1a2Qx2xlT9BXYJ-73v-2" value="developer 1" style="shape=umlActor;verticalLabelPosition=bottom;verticalAlign=top;html=1;outlineConnect=0;" vertex="1" parent="1">
          <mxGeometry x="230" y="250" width="30" height="60" as="geometry" />
        </mxCell>
        <mxCell id="ZX1a2Qx2xlT9BXYJ-73v-5" style="edgeStyle=orthogonalEdgeStyle;rounded=0;orthogonalLoop=1;jettySize=auto;html=1;entryX=1;entryY=0.5;entryDx=0;entryDy=0;" edge="1" parent="1" source="ZX1a2Qx2xlT9BXYJ-73v-3" target="ZX1a2Qx2xlT9BXYJ-73v-1">
          <mxGeometry relative="1" as="geometry" />
        </mxCell>
        <mxCell id="ZX1a2Qx2xlT9BXYJ-73v-13" style="edgeStyle=orthogonalEdgeStyle;rounded=0;orthogonalLoop=1;jettySize=auto;html=1;entryX=0.5;entryY=0;entryDx=0;entryDy=0;" edge="1" parent="1" source="ZX1a2Qx2xlT9BXYJ-73v-3" target="ZX1a2Qx2xlT9BXYJ-73v-12">
          <mxGeometry relative="1" as="geometry" />
        </mxCell>
        <mxCell id="ZX1a2Qx2xlT9BXYJ-73v-3" value="developer 2" style="shape=umlActor;verticalLabelPosition=bottom;verticalAlign=top;html=1;outlineConnect=0;" vertex="1" parent="1">
          <mxGeometry x="550" y="250" width="30" height="60" as="geometry" />
        </mxCell>
        <mxCell id="ZX1a2Qx2xlT9BXYJ-73v-8" value="main or master" style="rounded=0;whiteSpace=wrap;html=1;" vertex="1" parent="1">
          <mxGeometry x="354" y="400" width="120" height="30" as="geometry" />
        </mxCell>
        <mxCell id="ZX1a2Qx2xlT9BXYJ-73v-17" style="edgeStyle=orthogonalEdgeStyle;rounded=0;orthogonalLoop=1;jettySize=auto;html=1;entryX=0.3;entryY=1.052;entryDx=0;entryDy=0;entryPerimeter=0;" edge="1" parent="1" source="ZX1a2Qx2xlT9BXYJ-73v-9" target="ZX1a2Qx2xlT9BXYJ-73v-8">
          <mxGeometry relative="1" as="geometry" />
        </mxCell>
        <mxCell id="ZX1a2Qx2xlT9BXYJ-73v-9" value="signup-branch" style="rounded=0;whiteSpace=wrap;html=1;" vertex="1" parent="1">
          <mxGeometry x="185" y="480" width="120" height="60" as="geometry" />
        </mxCell>
        <mxCell id="ZX1a2Qx2xlT9BXYJ-73v-20" style="edgeStyle=orthogonalEdgeStyle;rounded=0;orthogonalLoop=1;jettySize=auto;html=1;entryX=0.705;entryY=1.052;entryDx=0;entryDy=0;entryPerimeter=0;" edge="1" parent="1" source="ZX1a2Qx2xlT9BXYJ-73v-12" target="ZX1a2Qx2xlT9BXYJ-73v-8">
          <mxGeometry relative="1" as="geometry" />
        </mxCell>
        <mxCell id="ZX1a2Qx2xlT9BXYJ-73v-12" value="signin-branch" style="rounded=0;whiteSpace=wrap;html=1;" vertex="1" parent="1">
          <mxGeometry x="505" y="480" width="120" height="60" as="geometry" />
        </mxCell>
        <mxCell id="ZX1a2Qx2xlT9BXYJ-73v-15" style="edgeStyle=orthogonalEdgeStyle;rounded=0;orthogonalLoop=1;jettySize=auto;html=1;" edge="1" parent="1" source="ZX1a2Qx2xlT9BXYJ-73v-14" target="ZX1a2Qx2xlT9BXYJ-73v-9">
          <mxGeometry relative="1" as="geometry" />
        </mxCell>
        <mxCell id="ZX1a2Qx2xlT9BXYJ-73v-14" value="tester" style="shape=umlActor;verticalLabelPosition=bottom;verticalAlign=top;html=1;outlineConnect=0;" vertex="1" parent="1">
          <mxGeometry x="90" y="480" width="30" height="60" as="geometry" />
        </mxCell>
        <mxCell id="ZX1a2Qx2xlT9BXYJ-73v-19" style="edgeStyle=orthogonalEdgeStyle;rounded=0;orthogonalLoop=1;jettySize=auto;html=1;" edge="1" parent="1" source="ZX1a2Qx2xlT9BXYJ-73v-18" target="ZX1a2Qx2xlT9BXYJ-73v-12">
          <mxGeometry relative="1" as="geometry" />
        </mxCell>
        <mxCell id="ZX1a2Qx2xlT9BXYJ-73v-18" value="tester" style="shape=umlActor;verticalLabelPosition=bottom;verticalAlign=top;html=1;outlineConnect=0;" vertex="1" parent="1">
          <mxGeometry x="710" y="480" width="30" height="60" as="geometry" />
        </mxCell>
      </root>
    </mxGraphModel>
  </diagram>
  <diagram id="FFBRFcySV564dAsGsqOR" name="Page-3">
    <mxGraphModel dx="1656" dy="2273" grid="1" gridSize="10" guides="1" tooltips="1" connect="1" arrows="1" fold="1" page="1" pageScale="1" pageWidth="827" pageHeight="1169" math="0" shadow="0">
      <root>
        <mxCell id="0" />
        <mxCell id="1" parent="0" />
        <mxCell id="mszdC2usax0-g0It5dpZ-10" style="edgeStyle=orthogonalEdgeStyle;rounded=0;orthogonalLoop=1;jettySize=auto;html=1;entryX=0.5;entryY=1;entryDx=0;entryDy=0;" edge="1" parent="1" source="P8AyRYgbQiIZx7UX2Ka5-1" target="mszdC2usax0-g0It5dpZ-8">
          <mxGeometry relative="1" as="geometry" />
        </mxCell>
        <mxCell id="P8AyRYgbQiIZx7UX2Ka5-1" value="8649f50" style="rounded=0;whiteSpace=wrap;html=1;fillColor=#dae8fc;strokeColor=#6c8ebf;fontStyle=1;fontSize=15;" vertex="1" parent="1">
          <mxGeometry x="330" y="747.5" width="120" height="50" as="geometry" />
        </mxCell>
        <mxCell id="5JzjtSnENfa_5SnU0CrF-42" style="edgeStyle=orthogonalEdgeStyle;rounded=0;orthogonalLoop=1;jettySize=auto;html=1;" edge="1" parent="1" source="mszdC2usax0-g0It5dpZ-1" target="5JzjtSnENfa_5SnU0CrF-41">
          <mxGeometry relative="1" as="geometry" />
        </mxCell>
        <mxCell id="mszdC2usax0-g0It5dpZ-1" value="main" style="rounded=0;whiteSpace=wrap;html=1;fontStyle=1;fillColor=#a0522d;fontColor=#ffffff;strokeColor=#6D1F00;" vertex="1" parent="1">
          <mxGeometry x="180" y="-232.5" width="80" height="35" as="geometry" />
        </mxCell>
        <mxCell id="5JzjtSnENfa_5SnU0CrF-47" style="edgeStyle=orthogonalEdgeStyle;rounded=0;orthogonalLoop=1;jettySize=auto;html=1;" edge="1" parent="1" source="mszdC2usax0-g0It5dpZ-5" target="5JzjtSnENfa_5SnU0CrF-45">
          <mxGeometry relative="1" as="geometry" />
        </mxCell>
        <mxCell id="mszdC2usax0-g0It5dpZ-5" value="HEAD" style="rounded=0;whiteSpace=wrap;html=1;fontStyle=1;fillColor=#1ba1e2;fontColor=#ffffff;strokeColor=#006EAF;" vertex="1" parent="1">
          <mxGeometry x="20" y="667.5" width="80" height="35" as="geometry" />
        </mxCell>
        <mxCell id="5JzjtSnENfa_5SnU0CrF-7" style="edgeStyle=orthogonalEdgeStyle;rounded=0;orthogonalLoop=1;jettySize=auto;html=1;" edge="1" parent="1" source="mszdC2usax0-g0It5dpZ-8" target="5JzjtSnENfa_5SnU0CrF-5">
          <mxGeometry relative="1" as="geometry" />
        </mxCell>
        <mxCell id="mszdC2usax0-g0It5dpZ-8" value="9c80b23" style="rounded=0;whiteSpace=wrap;html=1;fillColor=#dae8fc;strokeColor=#6c8ebf;fontStyle=1;fontSize=15;" vertex="1" parent="1">
          <mxGeometry x="330" y="660" width="120" height="50" as="geometry" />
        </mxCell>
        <mxCell id="5JzjtSnENfa_5SnU0CrF-17" style="edgeStyle=orthogonalEdgeStyle;rounded=0;orthogonalLoop=1;jettySize=auto;html=1;" edge="1" parent="1" source="5JzjtSnENfa_5SnU0CrF-5" target="5JzjtSnENfa_5SnU0CrF-13">
          <mxGeometry relative="1" as="geometry" />
        </mxCell>
        <mxCell id="5JzjtSnENfa_5SnU0CrF-21" style="edgeStyle=orthogonalEdgeStyle;rounded=0;orthogonalLoop=1;jettySize=auto;html=1;" edge="1" parent="1" source="5JzjtSnENfa_5SnU0CrF-5" target="5JzjtSnENfa_5SnU0CrF-19">
          <mxGeometry relative="1" as="geometry" />
        </mxCell>
        <mxCell id="5JzjtSnENfa_5SnU0CrF-5" value="45888df" style="rounded=0;whiteSpace=wrap;html=1;fillColor=#dae8fc;strokeColor=#6c8ebf;fontStyle=1;fontSize=15;" vertex="1" parent="1">
          <mxGeometry x="330" y="570" width="120" height="50" as="geometry" />
        </mxCell>
        <mxCell id="5JzjtSnENfa_5SnU0CrF-25" style="edgeStyle=orthogonalEdgeStyle;rounded=0;orthogonalLoop=1;jettySize=auto;html=1;" edge="1" parent="1" source="5JzjtSnENfa_5SnU0CrF-13" target="5JzjtSnENfa_5SnU0CrF-22">
          <mxGeometry relative="1" as="geometry">
            <Array as="points">
              <mxPoint x="490" y="310" />
              <mxPoint x="390" y="310" />
            </Array>
          </mxGeometry>
        </mxCell>
        <mxCell id="5JzjtSnENfa_5SnU0CrF-13" value="a91f0a5" style="rounded=0;whiteSpace=wrap;html=1;fillColor=#dae8fc;strokeColor=#6c8ebf;fontStyle=1;fontSize=15;" vertex="1" parent="1">
          <mxGeometry x="430" y="455" width="120" height="50" as="geometry" />
        </mxCell>
        <mxCell id="5JzjtSnENfa_5SnU0CrF-24" style="edgeStyle=orthogonalEdgeStyle;rounded=0;orthogonalLoop=1;jettySize=auto;html=1;" edge="1" parent="1" source="5JzjtSnENfa_5SnU0CrF-19" target="5JzjtSnENfa_5SnU0CrF-22">
          <mxGeometry relative="1" as="geometry" />
        </mxCell>
        <mxCell id="5JzjtSnENfa_5SnU0CrF-19" value="13d654b" style="rounded=0;whiteSpace=wrap;html=1;fillColor=#dae8fc;strokeColor=#6c8ebf;fontStyle=1;fontSize=15;" vertex="1" parent="1">
          <mxGeometry x="330" y="340" width="120" height="50" as="geometry" />
        </mxCell>
        <mxCell id="5JzjtSnENfa_5SnU0CrF-31" style="edgeStyle=orthogonalEdgeStyle;rounded=0;orthogonalLoop=1;jettySize=auto;html=1;" edge="1" parent="1" source="5JzjtSnENfa_5SnU0CrF-22" target="5JzjtSnENfa_5SnU0CrF-30">
          <mxGeometry relative="1" as="geometry" />
        </mxCell>
        <mxCell id="5JzjtSnENfa_5SnU0CrF-35" style="edgeStyle=orthogonalEdgeStyle;rounded=0;orthogonalLoop=1;jettySize=auto;html=1;" edge="1" parent="1" source="5JzjtSnENfa_5SnU0CrF-22" target="5JzjtSnENfa_5SnU0CrF-34">
          <mxGeometry relative="1" as="geometry" />
        </mxCell>
        <mxCell id="5JzjtSnENfa_5SnU0CrF-22" value="b9b74eb" style="rounded=0;whiteSpace=wrap;html=1;fillColor=#6a00ff;strokeColor=#3700CC;fontStyle=1;fontSize=15;fontColor=#ffffff;" vertex="1" parent="1">
          <mxGeometry x="330" y="220" width="120" height="50" as="geometry" />
        </mxCell>
        <mxCell id="5JzjtSnENfa_5SnU0CrF-39" style="edgeStyle=orthogonalEdgeStyle;rounded=0;orthogonalLoop=1;jettySize=auto;html=1;" edge="1" parent="1" source="5JzjtSnENfa_5SnU0CrF-30" target="5JzjtSnENfa_5SnU0CrF-37">
          <mxGeometry relative="1" as="geometry">
            <Array as="points">
              <mxPoint x="490" y="-40" />
              <mxPoint x="390" y="-40" />
            </Array>
          </mxGeometry>
        </mxCell>
        <mxCell id="5JzjtSnENfa_5SnU0CrF-30" value="5d5d81d" style="rounded=0;whiteSpace=wrap;html=1;fillColor=#dae8fc;strokeColor=#6c8ebf;fontStyle=1;fontSize=15;" vertex="1" parent="1">
          <mxGeometry x="430" y="90" width="120" height="50" as="geometry" />
        </mxCell>
        <mxCell id="5JzjtSnENfa_5SnU0CrF-38" style="edgeStyle=orthogonalEdgeStyle;rounded=0;orthogonalLoop=1;jettySize=auto;html=1;" edge="1" parent="1" source="5JzjtSnENfa_5SnU0CrF-34" target="5JzjtSnENfa_5SnU0CrF-37">
          <mxGeometry relative="1" as="geometry" />
        </mxCell>
        <mxCell id="5JzjtSnENfa_5SnU0CrF-34" value="e2129fd" style="rounded=0;whiteSpace=wrap;html=1;fillColor=#dae8fc;strokeColor=#6c8ebf;fontStyle=1;fontSize=15;" vertex="1" parent="1">
          <mxGeometry x="330" y="-10" width="120" height="50" as="geometry" />
        </mxCell>
        <mxCell id="5JzjtSnENfa_5SnU0CrF-43" style="edgeStyle=orthogonalEdgeStyle;rounded=0;orthogonalLoop=1;jettySize=auto;html=1;" edge="1" parent="1" source="5JzjtSnENfa_5SnU0CrF-37" target="5JzjtSnENfa_5SnU0CrF-41">
          <mxGeometry relative="1" as="geometry" />
        </mxCell>
        <mxCell id="5JzjtSnENfa_5SnU0CrF-37" value="9264b5d" style="rounded=0;whiteSpace=wrap;html=1;fillColor=#6a00ff;strokeColor=#3700CC;fontStyle=1;fontSize=15;fontColor=#ffffff;" vertex="1" parent="1">
          <mxGeometry x="330" y="-140" width="120" height="50" as="geometry" />
        </mxCell>
        <mxCell id="5JzjtSnENfa_5SnU0CrF-41" value="9458a33" style="rounded=0;whiteSpace=wrap;html=1;fillColor=#dae8fc;strokeColor=#6c8ebf;fontStyle=1;fontSize=15;" vertex="1" parent="1">
          <mxGeometry x="330" y="-240" width="120" height="50" as="geometry" />
        </mxCell>
        <mxCell id="5JzjtSnENfa_5SnU0CrF-46" style="edgeStyle=orthogonalEdgeStyle;rounded=0;orthogonalLoop=1;jettySize=auto;html=1;entryX=0;entryY=0.5;entryDx=0;entryDy=0;" edge="1" parent="1" source="5JzjtSnENfa_5SnU0CrF-45" target="mszdC2usax0-g0It5dpZ-8">
          <mxGeometry relative="1" as="geometry" />
        </mxCell>
        <mxCell id="5JzjtSnENfa_5SnU0CrF-45" value="b1" style="rounded=0;whiteSpace=wrap;html=1;fontStyle=1;fillColor=#a0522d;fontColor=#ffffff;strokeColor=#6D1F00;" vertex="1" parent="1">
          <mxGeometry x="150" y="667.5" width="80" height="35" as="geometry" />
        </mxCell>
      </root>
    </mxGraphModel>
  </diagram>
  <diagram id="lpCg7710QAeVKyWMji_D" name="Page-4">
    <mxGraphModel dx="1035" dy="690" grid="1" gridSize="10" guides="1" tooltips="1" connect="1" arrows="1" fold="1" page="1" pageScale="1" pageWidth="827" pageHeight="1169" math="0" shadow="0">
      <root>
        <mxCell id="0" />
        <mxCell id="1" parent="0" />
        <mxCell id="f6Mig8O-xBV9Q5Xzyf9s-1" value="Local&lt;br&gt;Repository" style="rounded=0;whiteSpace=wrap;html=1;fontStyle=1;fontSize=16;" vertex="1" parent="1">
          <mxGeometry x="270" y="565" width="120" height="70" as="geometry" />
        </mxCell>
        <mxCell id="f6Mig8O-xBV9Q5Xzyf9s-3" style="edgeStyle=orthogonalEdgeStyle;rounded=0;orthogonalLoop=1;jettySize=auto;html=1;entryX=0.5;entryY=1;entryDx=0;entryDy=0;" edge="1" parent="1" source="f6Mig8O-xBV9Q5Xzyf9s-2" target="f6Mig8O-xBV9Q5Xzyf9s-1">
          <mxGeometry relative="1" as="geometry" />
        </mxCell>
        <mxCell id="f6Mig8O-xBV9Q5Xzyf9s-2" value="developer" style="shape=umlActor;verticalLabelPosition=bottom;verticalAlign=top;html=1;outlineConnect=0;" vertex="1" parent="1">
          <mxGeometry x="315" y="670" width="30" height="60" as="geometry" />
        </mxCell>
        <mxCell id="f6Mig8O-xBV9Q5Xzyf9s-5" value="" style="rounded=0;whiteSpace=wrap;html=1;fontStyle=1;fontSize=16;" vertex="1" parent="1">
          <mxGeometry x="200" y="210" width="480" height="100" as="geometry" />
        </mxCell>
        <mxCell id="f6Mig8O-xBV9Q5Xzyf9s-6" value="Remote&lt;br&gt;Repository" style="rounded=0;whiteSpace=wrap;html=1;fontStyle=1;fontSize=16;" vertex="1" parent="1">
          <mxGeometry x="390" y="230" width="120" height="60" as="geometry" />
        </mxCell>
        <mxCell id="f6Mig8O-xBV9Q5Xzyf9s-7" value="Remote/Shared Server - (GitHub, GitLab, BitBucket)" style="text;html=1;strokeColor=none;fillColor=none;align=center;verticalAlign=middle;whiteSpace=wrap;rounded=0;fontStyle=1;fontSize=15;" vertex="1" parent="1">
          <mxGeometry x="200" y="170" width="480" height="30" as="geometry" />
        </mxCell>
        <mxCell id="f6Mig8O-xBV9Q5Xzyf9s-9" style="edgeStyle=orthogonalEdgeStyle;rounded=0;orthogonalLoop=1;jettySize=auto;html=1;entryX=0.5;entryY=1;entryDx=0;entryDy=0;" edge="1" parent="1" source="f6Mig8O-xBV9Q5Xzyf9s-8" target="f6Mig8O-xBV9Q5Xzyf9s-5">
          <mxGeometry relative="1" as="geometry" />
        </mxCell>
        <mxCell id="f6Mig8O-xBV9Q5Xzyf9s-16" style="edgeStyle=orthogonalEdgeStyle;rounded=0;orthogonalLoop=1;jettySize=auto;html=1;" edge="1" parent="1" source="f6Mig8O-xBV9Q5Xzyf9s-8" target="f6Mig8O-xBV9Q5Xzyf9s-15">
          <mxGeometry relative="1" as="geometry">
            <Array as="points">
              <mxPoint x="440" y="480" />
              <mxPoint x="580" y="480" />
            </Array>
          </mxGeometry>
        </mxCell>
        <mxCell id="f6Mig8O-xBV9Q5Xzyf9s-8" value="internet" style="ellipse;shape=cloud;whiteSpace=wrap;html=1;" vertex="1" parent="1">
          <mxGeometry x="380" y="360" width="120" height="80" as="geometry" />
        </mxCell>
        <mxCell id="f6Mig8O-xBV9Q5Xzyf9s-11" style="edgeStyle=orthogonalEdgeStyle;rounded=0;orthogonalLoop=1;jettySize=auto;html=1;" edge="1" parent="1" source="f6Mig8O-xBV9Q5Xzyf9s-10" target="f6Mig8O-xBV9Q5Xzyf9s-8">
          <mxGeometry relative="1" as="geometry">
            <Array as="points">
              <mxPoint x="330" y="480" />
              <mxPoint x="440" y="480" />
            </Array>
          </mxGeometry>
        </mxCell>
        <mxCell id="f6Mig8O-xBV9Q5Xzyf9s-10" value="R" style="ellipse;whiteSpace=wrap;html=1;aspect=fixed;fillColor=#1ba1e2;fontColor=#ffffff;strokeColor=#006EAF;fontStyle=1;fontSize=13;" vertex="1" parent="1">
          <mxGeometry x="310" y="530" width="40" height="40" as="geometry" />
        </mxCell>
        <mxCell id="f6Mig8O-xBV9Q5Xzyf9s-12" value="Local&lt;br&gt;Repository" style="rounded=0;whiteSpace=wrap;html=1;fontStyle=1;fontSize=16;" vertex="1" parent="1">
          <mxGeometry x="520" y="565" width="120" height="70" as="geometry" />
        </mxCell>
        <mxCell id="f6Mig8O-xBV9Q5Xzyf9s-13" style="edgeStyle=orthogonalEdgeStyle;rounded=0;orthogonalLoop=1;jettySize=auto;html=1;entryX=0.5;entryY=1;entryDx=0;entryDy=0;" edge="1" parent="1" source="f6Mig8O-xBV9Q5Xzyf9s-14" target="f6Mig8O-xBV9Q5Xzyf9s-12">
          <mxGeometry relative="1" as="geometry" />
        </mxCell>
        <mxCell id="f6Mig8O-xBV9Q5Xzyf9s-14" value="developer" style="shape=umlActor;verticalLabelPosition=bottom;verticalAlign=top;html=1;outlineConnect=0;" vertex="1" parent="1">
          <mxGeometry x="565" y="670" width="30" height="60" as="geometry" />
        </mxCell>
        <mxCell id="f6Mig8O-xBV9Q5Xzyf9s-15" value="R" style="ellipse;whiteSpace=wrap;html=1;aspect=fixed;fillColor=#1ba1e2;fontColor=#ffffff;strokeColor=#006EAF;fontStyle=1;fontSize=13;" vertex="1" parent="1">
          <mxGeometry x="560" y="530" width="40" height="40" as="geometry" />
        </mxCell>
      </root>
    </mxGraphModel>
  </diagram>
</mxfile>
